HIERARCHY
ROOT SpineBase
{
  OFFSET 0.000000 0.000000 0.000000
  CHANNELS 6 Xposition Yposition Zposition Zrotation Xrotation Yrotation
  JOINT SpineMid
  {
    OFFSET -0.000000 32.606998 0.000000
    CHANNELS 3 Zrotation Xrotation Yrotation
    JOINT SpineShoulder
    {
      OFFSET -0.263776 23.948092 -0.962137
      CHANNELS 3 Zrotation Xrotation Yrotation
      JOINT Neck
      {
        OFFSET -0.145395 7.884646 -0.725505
        CHANNELS 3 Zrotation Xrotation Yrotation
        JOINT Head
        {
          OFFSET -0.098436 12.526480 6.202249
          CHANNELS 3 Zrotation Xrotation Yrotation
          End Site
          {
            OFFSET 0 0 0
          }
        }
      }
      JOINT ShoulderLeft
      {
        OFFSET -6.678740 -2.707015 10.591565
        CHANNELS 3 Zrotation Xrotation Yrotation
        JOINT ElbowLeft
        {
          OFFSET -6.224361 -20.652147 -20.658288
          CHANNELS 3 Zrotation Xrotation Yrotation
          JOINT WristLeft
          {
            OFFSET -3.029226 -26.919219 -8.544455
            CHANNELS 3 Zrotation Xrotation Yrotation
            JOINT HandLeft
            {
              OFFSET -2.728145 -5.421296 0.080711
              CHANNELS 3 Zrotation Xrotation Yrotation
              JOINT HandTipLeft
              {
                OFFSET -1.562482 -8.419684 1.262003
                CHANNELS 3 Zrotation Xrotation Yrotation
                End Site
                {
                  OFFSET 0 0 0
                }
              }
              JOINT ThumbLeft
              {
                OFFSET 4.745230 0.612741 0.850163
                CHANNELS 3 Zrotation Xrotation Yrotation
                End Site
                {
                  OFFSET 0 0 0
                }
              }
            }
          }
        }
      }
      JOINT ShoulderRight
      {
        OFFSET -5.715557 -4.165697 -11.329471
        CHANNELS 3 Zrotation Xrotation Yrotation
        JOINT ElbowRight
        {
          OFFSET -8.227330 -26.566537 -2.507877
          CHANNELS 3 Zrotation Xrotation Yrotation
          JOINT WristRight
          {
            OFFSET -7.441534 -22.303092 0.064192
            CHANNELS 3 Zrotation Xrotation Yrotation
            JOINT HandRight
            {
              OFFSET -2.531819 -8.902837 -2.354161
              CHANNELS 3 Zrotation Xrotation Yrotation
              JOINT HandTipRight
              {
                OFFSET -2.971782 -6.762377 3.057272
                CHANNELS 3 Zrotation Xrotation Yrotation
                End Site
                {
                  OFFSET 0 0 0
                }
              }
              JOINT ThumbRight
              {
                OFFSET -4.907019 -5.047526 0.445780
                CHANNELS 3 Zrotation Xrotation Yrotation
                End Site
                {
                  OFFSET 0 0 0
                }
              }
            }
          }
        }
      }
    }
  }
  JOINT HipLeft
  {
    OFFSET -0.356936 1.073291 -7.346932
    CHANNELS 3 Zrotation Xrotation Yrotation
    JOINT KneeLeft
    {
      OFFSET 6.301772 -37.433115 12.677979
      CHANNELS 3 Zrotation Xrotation Yrotation
      JOINT AnkleLeft
      {
        OFFSET 4.890180 -26.369204 7.344626
        CHANNELS 3 Zrotation Xrotation Yrotation
        JOINT FootLeft
        {
          OFFSET -10.710753 -3.244917 -3.928799
          CHANNELS 3 Zrotation Xrotation Yrotation
          End Site
          {
            OFFSET 0 0 0
          }
        }
      }
    }
  }
  JOINT HipRight
  {
    OFFSET -1.395596 0.794613 -0.065117
    CHANNELS 3 Zrotation Xrotation Yrotation
    JOINT KneeRight
    {
      OFFSET -7.597704 -32.208688 -9.585650
      CHANNELS 3 Zrotation Xrotation Yrotation
      JOINT AnkleRight
      {
        OFFSET 5.307632 -39.776895 -3.418744
        CHANNELS 3 Zrotation Xrotation Yrotation
        JOINT FootRight
        {
          OFFSET -4.755602 -6.197564 -0.459377
          CHANNELS 3 Zrotation Xrotation Yrotation
          End Site
          {
            OFFSET 0 0 0
          }
        }
      }
    }
  }
}
MOTION
Frames: 9
Frame Time: 0.033333
42.723372 80.203031 266.461725 -1.129431 1.906022 -24.991151 0.043367 0.118785 24.992463 0.219377 0.486200 -0.002635 -10.758065 1.643691 5.649783 0.000000 0.000000 0.000000 -1.096668 -41.173295 20.164834 -7.410013 1.296250 -9.411162 46.068381 -19.642144 11.734050 -28.753159 19.461124 -5.880706 0.000000 0.000000 0.000000 0.000000 0.000000 0.000000 18.017182 -2.692175 -0.773144 -68.689508 15.188910 2.872509 -33.542237 27.235191 28.941690 -30.061474 -48.226418 -84.300729 0.000000 0.000000 0.000000 0.000000 0.000000 0.000000 10.502824 5.351950 28.689769 -12.895948 -5.814242 -5.560530 25.716854 4.111870 -79.676337 0.000000 0.000000 0.000000 0.918899 -5.607325 26.616494 3.272469 1.795457 -2.019657 3.681260 0.635899 0.702535 0.000000 0.000000 0.000000
41.966113 80.453005 266.288356 -1.546079 2.441502 -20.968363 0.143772 0.138371 20.979130 0.265933 0.530348 -0.006736 -11.184360 1.294906 5.914791 0.000000 0.000000 0.000000 -0.671838 -46.390239 23.955405 -5.163043 5.347094 -13.041714 43.813662 -17.119834 10.086329 -25.150561 18.067561 -7.431747 0.000000 0.000000 0.000000 0.000000 0.000000 0.000000 29.851934 -10.487172 3.383787 -88.745752 22.273279 11.817556 -28.269810 33.290906 31.960947 -39.863512 -48.535769 -94.353204 0.000000 0.000000 0.000000 0.000000 0.000000 0.000000 5.886232 6.395010 24.099730 -10.143492 -10.330052 -5.793654 26.003260 5.917820 -77.485520 0.000000 0.000000 0.000000 0.850339 -6.357640 22.737304 4.210574 1.471242 -2.344676 8.134208 14.814577 -11.972222 0.000000 0.000000 0.000000
40.940632 80.749258 266.403584 -2.290806 3.011498 -16.681131 0.227731 0.260356 16.707178 0.260053 0.633767 -0.027397 -10.884406 0.489606 5.976552 0.000000 0.000000 0.000000 2.142910 -53.254693 28.943949 -3.602728 11.768260 -15.533484 44.014963 -15.035673 7.552331 -27.567404 15.455782 -5.482288 0.000000 0.000000 0.000000 0.000000 0.000000 0.000000 36.140585 -14.619998 6.584510 -99.345877 25.325242 17.694210 -22.574274 39.139072 33.547193 -55.237631 -54.091863 -105.418828 0.000000 0.000000 0.000000 0.000000 0.000000 0.000000 0.321650 8.824103 19.149921 -6.069785 -15.905298 -5.663387 26.117646 7.789547 -74.877766 0.000000 0.000000 0.000000 1.588112 -6.840089 18.450667 4.396887 1.364009 -2.406302 18.228948 31.066699 -32.199033 0.000000 0.000000 0.000000
39.793274 81.075344 266.478042 -3.183275 3.601542 -12.057229 0.285405 0.433886 12.108741 0.207366 0.706978 -0.061169 -10.254454 -0.888474 5.957280 0.000000 0.000000 0.000000 8.149006 -61.707593 37.754542 -0.428808 20.359028 -19.632911 43.987277 -17.358692 9.765895 -26.630044 18.058678 -6.590101 0.000000 0.000000 0.000000 0.000000 0.000000 0.000000 37.732266 -17.512627 8.857815 -101.331249 26.833104 20.811077 -19.872907 40.519041 33.058836 -62.142920 -60.046415 -108.546966 0.000000 0.000000 0.000000 0.000000 0.000000 0.000000 -5.008438 11.853111 13.906013 -1.155657 -20.919242 -4.819153 26.111586 9.293621 -72.138013 0.000000 0.000000 0.000000 3.206704 -7.572749 13.752268 3.586334 1.589621 -2.257191 31.902024 40.745005 -53.307613 0.000000 0.000000 0.000000
38.580013 81.446635 267.115203 -4.126099 4.426735 -8.344237 0.289589 0.462336 8.433171 0.129373 0.727831 -0.106020 -9.542543 -2.019472 6.019417 0.000000 0.000000 0.000000 20.691344 -69.837305 52.837477 3.938476 28.888098 -24.822594 44.087130 -17.691163 10.074521 -26.572596 18.203489 -6.649969 0.000000 0.000000 0.000000 0.000000 0.000000 0.000000 33.402394 -18.814199 9.024967 -92.202620 27.577021 19.326122 -24.142760 41.284610 33.587688 -56.697185 -64.347516 -103.377007 0.000000 0.000000 0.000000 0.000000 0.000000 0.000000 -9.222597 15.557964 10.097441 3.403941 -25.523577 -3.766244 26.096994 10.095581 -70.000534 0.000000 0.000000 0.000000 4.906519 -8.583811 9.988293 2.791007 2.290410 -1.979949 41.037630 44.644014 -67.671559 0.000000 0.000000 0.000000
37.445266 81.719758 267.877966 -4.962380 5.208377 -4.942690 0.216250 0.505618 5.074415 0.056250 0.726419 -0.151324 -8.299779 -2.568902 5.912249 0.000000 0.000000 0.000000 49.221898 -76.139971 85.437467 11.184476 36.667976 -33.583450 43.845782 -17.427058 10.081668 -26.509313 18.358314 -6.715090 0.000000 0.000000 0.000000 0.000000 0.000000 0.000000 34.714231 -21.773309 11.143298 -93.571965 28.762893 22.113678 -29.666417 35.503784 33.666928 -40.422790 -65.149725 -93.316691 0.000000 0.000000 0.000000 0.000000 0.000000 0.000000 -11.306082 18.584445 6.835752 5.949455 -27.477764 -3.007059 26.537111 9.437976 -68.091862 0.000000 0.000000 0.000000 5.924473 -9.773256 6.657922 2.780364 3.147133 -1.878760 45.783229 45.982423 -75.773966 0.000000 0.000000 0.000000
36.701177 81.826431 269.733942 -5.366422 5.935474 -2.743641 -0.051575 0.547390 2.901976 -0.044279 0.637546 -0.196886 -8.596615 -3.410641 6.310215 0.000000 0.000000 0.000000 78.267392 -76.834910 116.760974 16.329693 41.749300 -39.265602 44.293948 -17.789953 9.884357 -26.729837 18.367993 -6.599287 0.000000 0.000000 0.000000 0.000000 0.000000 0.000000 36.233179 -24.331166 13.119803 -94.874835 29.873697 24.621482 -36.508737 30.125925 33.701420 -14.787324 -64.966950 -74.891148 0.000000 0.000000 0.000000 0.000000 0.000000 0.000000 -12.050229 20.587332 4.890980 8.072130 -30.131379 -2.348741 26.138513 9.918372 -67.961752 0.000000 0.000000 0.000000 5.989442 -9.742648 4.301633 3.333620 3.362759 -1.552694 47.480851 45.771571 -79.184549 0.000000 0.000000 0.000000
36.147892 81.871306 272.093587 -5.663460 6.681525 -2.098457 -0.120637 0.442391 2.293166 -0.037565 0.576566 -0.213060 -11.142073 -5.224121 7.222145 0.000000 0.000000 0.000000 92.080351 -75.961432 131.504771 19.440650 44.096844 -42.525144 44.402138 -18.076987 10.119753 -26.413782 18.582436 -6.811660 0.000000 0.000000 0.000000 0.000000 0.000000 0.000000 37.801856 -26.404472 14.900098 -96.491095 30.642259 26.805828 -46.985917 24.834858 34.538651 20.665575 -59.302089 -49.750654 0.000000 0.000000 0.000000 0.000000 0.000000 0.000000 -9.362708 19.644300 4.467397 7.050806 -31.471032 -2.936513 25.226857 11.133890 -69.536552 0.000000 0.000000 0.000000 5.831135 -9.097574 3.449830 4.365670 3.332816 -1.171847 47.253258 44.300964 -79.063528 0.000000 0.000000 0.000000
35.701950 81.818769 274.630408 -5.647161 6.974115 -2.718798 -0.133221 0.643000 2.943441 -0.098461 0.648059 -0.213057 -17.099428 -4.813804 9.499560 0.000000 0.000000 0.000000 96.219883 -75.610053 134.424880 18.143769 44.767846 -40.867185 44.368080 -17.821316 9.806617 -26.196999 18.721971 -6.956403 0.000000 0.000000 0.000000 0.000000 0.000000 0.000000 39.497365 -27.990454 16.506708 -98.349695 31.028121 28.554673 -49.692933 14.832887 28.475583 43.100742 -33.088468 -35.453444 0.000000 0.000000 0.000000 0.000000 0.000000 0.000000 -9.965751 21.023465 5.648219 8.631482 -36.241706 -2.734740 24.628493 13.419312 -71.716103 0.000000 0.000000 0.000000 5.596932 -7.752086 3.754253 5.284948 3.362897 -0.680264 44.626762 42.113978 -75.199729 0.000000 0.000000 0.000000
